<svg xmlns="http://www.w3.org/2000/svg" xmlns:vectornator="http://vectornator.io" xml:space="preserve" stroke-miterlimit="10" style="fill-rule:nonzero;clip-rule:evenodd;stroke-linecap:round;stroke-linejoin:round" viewBox="0 0 2250 2250"><defs><filter id="a" width="559.28" height="557.851" x="970.07" y="1192.58" color-interpolation-filters="sRGB" filterUnits="userSpaceOnUse"><feDropShadow dx="-3.42" dy="9.397" flood-color="#000" flood-opacity=".333" in="SourceGraphic" result="Shadow" stdDeviation="5"/></filter><filter id="b" width="131.2" height="163.4" x="1186.81" y="1395.33" color-interpolation-filters="sRGB" filterUnits="userSpaceOnUse"><feDropShadow dx="-3.42" dy="9.397" flood-color="#000" flood-opacity=".333" in="SourceGraphic" result="Shadow" stdDeviation="5"/></filter><filter id="d" width="2248.8" height="2247.74" x="-6.242" y="19.925" color-interpolation-filters="sRGB" filterUnits="userSpaceOnUse"><feDropShadow dx="-3.42" dy="9.397" flood-color="#000" flood-opacity=".33" in="SourceGraphic" result="Shadow" stdDeviation="5"/></filter><filter id="e" width="2223.8" height="2222.74" x="9.678" y="23.028" color-interpolation-filters="sRGB" filterUnits="userSpaceOnUse"><feDropShadow dx="-3.42" dy="9.397" flood-color="#000" flood-opacity=".4" in="SourceGraphic" result="Shadow" stdDeviation="5"/></filter><filter id="f" width="1777.25" height="597.76" x="239.998" y="793.831" color-interpolation-filters="sRGB" filterUnits="userSpaceOnUse"><feDropShadow dx="-3.42" dy="9.397" flood-color="#000" flood-opacity=".4" in="SourceGraphic" result="Shadow" stdDeviation="5"/></filter></defs><clipPath id="c"><path d="M0 0h2250v2250H0z"/></clipPath><g vectornator:layerName="Layer 1 copy"><g vectornator:layerName="Group 1" vectornator:shadowAngle="1.92" vectornator:shadowColor="#000000" vectornator:shadowOffset="10" vectornator:shadowOpacity=".33" vectornator:shadowRadius="10" fill="#fef8dd" clip-path="url(#c)" filter="url(#d)"><path vectornator:layerName="Curve 1" vectornator:shadowAngle="1.92" vectornator:shadowColor="#000000" vectornator:shadowOffset="10" vectornator:shadowOpacity=".4" vectornator:shadowRadius="10" d="M2162.89 680.922c-38.65-3.654-73.06-10.236-103.23-19.746-30.17-9.509-65.42-23.938-105.76-43.286-40.33-19.347-76.4-40.194-108.21-62.54-31.81-22.346-68.8-55.326-110.96-98.94-42.16-43.615-74.98-83.809-98.45-120.584-23.47-36.775-44.15-77.883-62.05-123.324-17.89-45.442-29.28-85.988-34.15-121.638-4.87-35.65-28.76-54.553-71.68-56.708-42.91-2.155-66.47-1.054-70.69 3.303-4.21 4.356-5.88 33.683-4.99 87.978.89 54.296 9.68 110.606 26.35 168.93 16.68 58.324 41.18 114.377 73.51 168.157 32.32 53.78 68.84 101.774 109.55 143.983 40.71 42.209 81.3 77.274 121.78 105.195 40.47 27.92 77.27 49.47 110.39 64.648 33.12 15.178 85.55 30.755 157.27 46.729 71.72 15.975 128.99 22.182 171.81 18.622 42.82-3.561 63.1-30.334 60.85-80.32-2.25-49.985-22.69-76.805-61.34-80.459ZM780.106 26.147c-47.175-.656-73.994 19.793-80.459 61.346-6.465 41.553-15.155 78.141-26.07 109.762-10.915 31.622-28.155 69.779-51.719 114.471-23.564 44.692-46.542 81.513-68.935 110.465-22.393 28.951-55.419 63.079-99.081 102.384-43.661 39.305-87.439 71.465-131.335 96.481-43.895 25.017-88.587 45.044-134.075 60.082-45.489 15.038-81.795 23.494-108.92 25.368-27.123 1.874-41.037 24.969-41.74 69.286-.702 44.318 5.411 68.514 18.341 72.59 12.93 4.075 39.398 5.785 79.406 5.129 40.007-.656 79.241-4.872 117.702-12.649 38.462-7.776 83.95-22.814 136.465-45.114 52.516-22.299 104.89-53.171 157.124-92.616 52.235-39.446 96.575-80.905 133.022-124.379 36.447-43.474 67.834-90.438 94.162-140.892 26.327-50.455 46.893-103.673 61.697-159.655 14.803-55.982 21.034-111.823 18.691-167.524-2.342-55.701-27.101-83.88-74.276-84.535ZM2121.15 1404.07c-54.3.89-107.77 8.2-160.43 21.93-52.65 13.73-104.49 33.87-155.51 60.43-51.01 26.56-94.86 54.44-131.54 83.62-36.68 29.19-73.95 66.25-111.8 111.17-37.85 44.93-68.56 89.74-92.13 134.43-23.56 44.69-42.74 95.03-57.55 151.01-14.8 55.98-22.48 110.42-23.05 163.31-.56 52.89 2.07 82.14 7.87 87.77 5.81 5.62 29.42 7.37 70.84 5.27 41.41-2.11 62.65-13.89 63.73-35.35 1.08-21.46 7.03-50.85 17.85-88.19 10.82-37.34 26.61-76.9 47.36-118.69 20.76-41.78 46.52-82.94 77.3-123.46 30.78-40.52 65.89-78.26 105.33-113.21 39.45-34.94 86.09-67.15 139.91-96.62 53.83-29.47 97.09-49.47 129.79-60.01 32.7-10.54 68.3-18.27 106.81-23.19 38.51-4.92 58.09-30.97 58.75-78.14.65-47.18-1.2-72.87-5.55-77.09-4.36-4.21-33.69-5.88-87.98-4.99Zm-1651.284 97.82c-64.929-37.52-118.218-62.37-159.865-74.55-41.647-12.18-78.937-20.15-111.87-23.89-32.933-3.75-67.249-4.62-102.946-2.6-35.698 2.01-56.357 5.92-61.979 11.73-5.621 5.81-8.127 27.29-7.518 64.44.609 37.15 39.68 66.52 117.211 88.12 77.531 21.59 143.726 49.09 198.584 82.5 54.858 33.4 100.44 67.67 136.746 102.8 36.307 35.14 69.1 73.9 98.379 116.3 29.279 42.39 55.069 89.85 77.368 142.37 22.299 52.51 36.658 100.15 43.076 142.92 6.418 42.78 33.215 64.49 80.389 65.15 47.175.65 73.503-6.21 78.984-20.59 5.481-14.39 7.191-40.85 5.13-79.41-2.062-38.55-11.455-88.42-28.179-149.61-16.725-61.18-41.272-120.09-73.644-176.72-32.371-56.64-72.542-109.58-120.514-158.82-47.971-49.23-104.422-92.61-169.352-130.14Z" filter="url(#e)"/><g vectornator:layerName="Text 1" vectornator:shadowAngle="1.92" vectornator:shadowColor="#000000" vectornator:shadowOffset="10" vectornator:shadowOpacity=".4" vectornator:shadowRadius="10" filter="url(#f)"><path d="M255.918 1369.69h99.9v-150.51c20.646 37.96 56.61 58.61 102.564 58.61 99.9 0 151.182-80.59 151.182-184.49 0-103.892-51.282-184.478-151.182-184.478-48.618 0-85.914 21.312-105.228 60.606l-1.998-52.614h-95.238v452.876Zm93.24-276.39c0-57.27 25.308-108.554 78.588-108.554 52.614 0 78.588 50.614 78.588 108.554 0 58.61-24.642 108.56-78.588 108.56-53.28 0-78.588-49.95-78.588-108.56ZM988.518 1269.79V916.814h-99.9v193.806c0 56.61-22.644 87.91-63.936 87.91s-53.28-31.3-53.28-87.91V916.814h-99.9v227.106c0 81.92 44.622 133.87 119.88 133.87 45.954 0 84.582-17.32 103.896-63.27l1.998 55.27h91.242ZM1076.43 796.934v374.956c0 62.61 38.63 97.9 97.9 97.9h54.61v-74.59h-25.3c-17.32 0-27.31-9.99-27.31-27.97V796.934h-99.9ZM1500.01 1031.37l99.9-4c-11.33-74.592-71.27-119.214-159.84-119.214-101.24 0-159.84 41.958-159.84 111.884 0 64.61 53.28 89.25 151.18 107.9 33.96 7.32 67.93 13.32 68.6 43.29.66 25.97-29.97 36.63-56.61 36.63-39.96 0-65.27-20.65-71.27-54.62l-100.56 4.67c5.33 75.25 71.26 119.88 174.49 119.88 90.58 0 156.51-33.97 156.51-104.57 0-66.6-50.62-93.9-154.51-109.89-33.97-5.99-63.94-17.31-65.27-43.29-1.33-25.97 22.64-41.954 53.28-41.954 29.97 0 58.61 19.98 63.94 53.284ZM1654.52 1093.3c0 111.23 71.26 184.49 181.15 184.49 80.59 0 146.52-42.63 167.83-111.23l-101.23-6.66c-11.32 26.64-37.96 43.96-66.6 43.96-45.29 0-73.93-31.97-76.59-84.58h249.08v-18.65c.67-123.876-74.59-191.808-172.49-191.808-109.89 0-181.15 73.26-181.15 184.478Zm105.23-34.63c5.32-47.28 33.3-75.922 75.92-75.922 35.3 0 65.93 22.642 71.26 75.922h-147.18Z"/></g></g></g></svg>